<?xml version="1.0" encoding="UTF-8"?>
<!DOCTYPE svg PUBLIC "-//W3C//DTD SVG 1.1//EN" "http://www.w3.org/Graphics/SVG/1.1/DTD/svg11.dtd">
<svg version="1.1" xmlns="http://www.w3.org/2000/svg" xmlns:xlink="http://www.w3.org/1999/xlink" x="0" y="0" width="1785.827" height="2721.26" viewBox="0, 0, 1785.827, 2721.26">
  <g id="Background">
    <rect x="0" y="0" width="1785.827" height="2721.26" fill="#FFFFFF"/>
  </g>
  <g id="Layer_1">
    <g>
      <path d="M177.714,985.556 L572.249,985.556 L572.249,1237.464 L177.714,1237.464 L177.714,985.556 z" fill="#CBCBCB"/>
      <path d="M177.714,985.556 L572.249,985.556 L572.249,1237.464 L177.714,1237.464 L177.714,985.556 z" fill-opacity="0" stroke="#000000" stroke-width="4"/>
    </g>
    <g>
      <path d="M177.714,818.253 L199.62,818.253 L199.62,985.556 L177.714,985.556 L177.714,818.253 z" fill="#CBCBCB"/>
      <path d="M177.714,818.253 L199.62,818.253 L199.62,985.556 L177.714,985.556 L177.714,818.253 z" fill-opacity="0" stroke="#000000" stroke-width="4"/>
    </g>
    <g>
      <path d="M607.024,1362.785 L1609.113,1362.785 L1609.113,1556.279 L607.024,1556.279 L607.024,1362.785 z" fill="#FF8585"/>
      <path d="M607.024,1362.785 L1609.113,1362.785 L1609.113,1556.279 L607.024,1556.279 L607.024,1362.785 z" fill-opacity="0" stroke="#000000" stroke-width="4"/>
    </g>
    <g>
      <path d="M550.344,818.253 L572.249,818.253 L572.249,985.556 L550.344,985.556 L550.344,818.253 z" fill="#CBCBCB"/>
      <path d="M550.344,818.253 L572.249,818.253 L572.249,985.556 L550.344,985.556 L550.344,818.253 z" fill-opacity="0" stroke="#000000" stroke-width="4"/>
    </g>
    <g>
      <path d="M232.086,1752.44 L517.877,1752.44 C537.76,1752.44 553.877,1768.558 553.877,1788.44 L553.877,2227.571 C553.877,2247.453 537.76,2263.571 517.877,2263.571 L232.086,2263.571 C212.204,2263.571 196.086,2247.453 196.086,2227.571 L196.086,1788.44 C196.086,1768.558 212.204,1752.44 232.086,1752.44 z" fill="#FFFF7B"/>
      <path d="M232.086,1752.44 L517.877,1752.44 C537.76,1752.44 553.877,1768.558 553.877,1788.44 L553.877,2227.571 C553.877,2247.453 537.76,2263.571 517.877,2263.571 L232.086,2263.571 C212.204,2263.571 196.086,2247.453 196.086,2227.571 L196.086,1788.44 C196.086,1768.558 212.204,1752.44 232.086,1752.44 z" fill-opacity="0" stroke="#000000" stroke-width="4"/>
    </g>
    <g>
      <path d="M1167.359,785.498 C923.385,785.498 725.605,709.206 725.605,615.094 C725.605,520.982 923.385,444.689 1167.359,444.689 C1411.333,444.689 1609.113,520.982 1609.113,615.094 C1609.113,709.206 1411.333,785.498 1167.359,785.498 z" fill="#87CEFF"/>
      <path d="M1167.359,785.498 C923.385,785.498 725.605,709.206 725.605,615.094 C725.605,520.982 923.385,444.689 1167.359,444.689 C1411.333,444.689 1609.113,520.982 1609.113,615.094 C1609.113,709.206 1411.333,785.498 1167.359,785.498 z" fill-opacity="0" stroke="#000000" stroke-width="4"/>
    </g>
    <g>
      <path d="M910.942,1923.665 L1109.368,1923.665 L1109.368,2122.091 L910.942,2122.091 L910.942,1923.665 z" fill="#FFFFFF"/>
      <path d="M910.942,1923.665 L1109.368,1923.665 L1109.368,2122.091 L910.942,2122.091 L910.942,1923.665 z" fill-opacity="0" stroke="#000000" stroke-width="4"/>
    </g>
    <g>
      <path d="M1278.406,1923.665 L1476.832,1923.665 L1476.832,2122.091 L1278.406,2122.091 L1278.406,1923.665 z" fill="#FFFFFF"/>
      <path d="M1278.406,1923.665 L1476.832,1923.665 L1476.832,2122.091 L1278.406,2122.091 L1278.406,1923.665 z" fill-opacity="0" stroke="#000000" stroke-width="4"/>
    </g>
    <path d="M371.88,985.556 L440.342,613.65" fill-opacity="0" stroke="#000000" stroke-width="11"/>
    <path d="M440.342,613.65 L725.605,615.094" fill-opacity="0" stroke="#000000" stroke-width="11"/>
    <path d="M241.477,1237.464 L274.982,1752.44" fill-opacity="0" stroke="#000000" stroke-width="11"/>
    <path d="M440.342,1237.464 L512.063,1617.751" fill-opacity="0" stroke="#000000" stroke-width="11"/>
    <path d="M512.063,1617.751 L704.407,1617.751" fill-opacity="0" stroke="#000000" stroke-width="11"/>
    <g>
      <path d="M704.407,1617.751 L704.407,1588.279" fill-opacity="0" stroke="#000000" stroke-width="11"/>
      <path d="M713.407,1588.279 L704.407,1564.279 L695.407,1588.279 z" fill="#000000" fill-opacity="1" stroke="#000000" stroke-width="11" stroke-opacity="1"/>
    </g>
    <path d="M1001.073,1556.278 L1020.634,1923.665" fill-opacity="0" stroke="#000000" stroke-width="11"/>
    <path d="M1375.981,1556.278 L1388.404,1923.665" fill-opacity="0" stroke="#000000" stroke-width="11"/>
    <text transform="matrix(1, 0, 0, 1, 1193.387, 614.594)">
      <tspan x="-173.253" y="30.5" font-family="D2CodingBold" font-size="100" fill="#000000">인터넷</tspan>
    </text>
    <text transform="matrix(1, 0, 0, 1, 1107.568, 1459.032)">
      <tspan x="-150" y="30.5" font-family="D2CodingBold" font-size="100" fill="#000000">스위치</tspan>
    </text>
    <text transform="matrix(1, 0, 0, 1, 374.482, 1111.01)">
      <tspan x="-150" y="30.5" font-family="D2CodingBold" font-size="100" fill="#000000">라우터</tspan>
    </text>
    <text transform="matrix(1, 0, 0, 1, 374.482, 2007.505)">
      <tspan x="-100" y="30.5" font-family="D2CodingBold" font-size="100" fill="#000000">서버</tspan>
    </text>
    <text transform="matrix(1, 0, 0, 1, 1198.869, 2222.571)">
      <tspan x="-250" y="30.5" font-family="D2CodingBold" font-size="100" fill="#000000">클라이언트</tspan>
    </text>
    <text transform="matrix(1, 0, 0, 1, 619.491, 1678.918)">
      <tspan x="-145.01" y="18.331" font-family="D2CodingBold" font-size="70" fill="#000000">포트 1번</tspan>
    </text>
    <text transform="matrix(1, 0, 0, 1, 582.474, 574.65)">
      <tspan x="-52.5" y="21.5" font-family="D2CodingBold" font-size="70" fill="#000000">WAN</tspan>
    </text>
  </g>
</svg>
